<svg width="25" height="38" viewBox="0 0 25 38" fill="none" xmlns="http://www.w3.org/2000/svg">
<path d="M12.1878 7.56186C14.2582 7.56186 15.9367 5.86908 15.9367 3.78093C15.9367 1.69278 14.2582 0 12.1878 0C10.1173 0 8.4389 1.69278 8.4389 3.78093C8.4389 5.86908 10.1173 7.56186 12.1878 7.56186Z" fill="#FF0000"/>
<path d="M7.12444 20.9755C6.28074 21.2905 5.33594 21.1484 4.62 20.599C4.12563 20.2186 3.65545 19.8073 3.21222 19.3675L0 29.8082C0 29.8082 1.64889 29.9964 4.09889 30.2239L7.12444 20.9755Z" fill="#FF0000"/>
<path d="M16.0845 20.6696C16.0607 20.5946 16.0321 20.5212 15.9989 20.45C16.5045 17.626 17.0645 14.7707 17.6711 11.9311C18.7367 12.6136 19.3823 13.3745 19.4367 14.0412C19.5145 14.8806 18.7134 15.9866 17.1811 17.1789C16.6075 17.6142 16.3752 18.3714 16.6049 19.0574C16.8345 19.7433 17.4744 20.2035 18.1923 20.199C18.5578 20.1996 18.9133 20.0782 19.2034 19.8538C21.7467 17.8927 22.9445 15.8454 22.7656 13.7588C22.6081 12.4002 21.9536 11.1499 20.93 10.2524C20.1727 9.55083 19.3219 8.9594 18.4023 8.49533C18.253 8.42033 18.0929 8.37 17.9278 8.34629C17.7661 8.2868 17.5942 8.26015 17.4223 8.26784H6.95336C6.77832 8.26264 6.60394 8.29195 6.44003 8.35413C6.28509 8.3787 6.13527 8.42906 5.9967 8.50317C5.07578 8.96184 4.22458 9.55088 3.46892 10.2524C2.44829 11.1511 1.79658 12.4014 1.64114 13.7588C1.45448 15.8454 2.65225 17.8927 5.19559 19.8538C5.927 20.4125 6.96821 20.2725 7.52892 19.54C8.08119 18.8003 7.93885 17.7499 7.21003 17.1868C5.65447 16.0101 4.8767 14.9041 4.95447 14.0491C5.00892 13.3901 5.6467 12.6292 6.70447 11.9468C7.29559 14.7394 7.84781 17.5476 8.35336 20.3245C8.31499 20.4035 8.28123 20.4847 8.25225 20.5676L3.63225 34.6873C3.45299 35.2334 3.49658 35.829 3.75341 36.3426C4.01023 36.8562 4.45918 37.2457 5.00114 37.4249C5.219 37.4995 5.44774 37.5366 5.67781 37.5348C6.59886 37.5415 7.42304 36.959 7.73114 36.0836L12.1567 22.513L16.6211 36.162C16.9109 37.0532 17.7367 37.6549 18.6667 37.6524C18.8965 37.6504 19.1246 37.6134 19.3434 37.5426C19.8853 37.3633 20.3343 36.9739 20.5911 36.4603C20.8479 35.9466 20.8915 35.3511 20.7123 34.805L16.0845 20.6696ZM14 16.0729L12.2034 15.1394L10.4378 16.0729L10.7723 14.1197L9.33336 12.692L11.3011 12.4018L12.1878 10.5976L13.0667 12.4018L15.0345 12.692L13.6267 14.1197L14 16.0729Z" fill="#FF0000"/>
<path d="M10.4767 30.7024C11.6071 30.7652 12.7426 30.8122 13.8834 30.8436L12.1567 25.5644L10.4767 30.7024Z" fill="#FF0000"/>
<path d="M19.7789 20.599C19.332 20.9442 18.7862 21.134 18.2234 21.1403C17.8737 21.1409 17.5274 21.0716 17.2045 20.9363L20.3778 30.7495C21.9245 30.7043 23.4514 30.3857 24.8889 29.8082L21.3889 19.1635C20.8857 19.6789 20.3477 20.1585 19.7789 20.599Z" fill="#FF0000"/>
</svg>
