<svg width="28" height="31" viewBox="0 0 28 31" fill="none" xmlns="http://www.w3.org/2000/svg">
<path d="M10.4103 0C8.61539 7.04545 6.10256 8.80682 0 10.9205V15.8523L12.9231 31V26.4205C18.3077 24.6591 21.5385 20.7841 23.6923 16.2045L10.4103 0ZM13.2821 31C20.1026 29.2386 24.7692 27.4773 26.9231 26.4205V22.5564C23.6027 25.1533 17.2728 28.7946 13.2821 30.2955V31ZM14 1.76136L13.3269 2.42187L24.2532 15.7532C24.4191 15.957 24.4553 16.2544 24.3429 16.4908C22.1558 21.1411 18.8094 25.2728 13.2821 27.125L13.2933 27.9176C19.0368 26.5085 23.3333 21.4886 27.282 16.9091L14 1.76136H14ZM11.3077 5.16299L14.1795 8.33345C14.3612 8.53687 14.4071 8.84734 14.2916 9.09303C12.8057 12.3741 10.8426 14.3136 7.86376 15.7752C7.58187 15.9148 7.2079 15.8433 7 15.6101L3.76923 12.0874C3.44875 11.7336 3.64255 11.0743 4.10577 10.9425C7.57775 9.92032 8.70825 8.80465 10.1074 5.37216C10.5251 4.83779 10.7803 4.822 11.3077 5.16299ZM10.9375 6.88032C9.71289 9.43499 8.15512 10.9251 5.53045 11.9002L7.68429 14.245C10.0177 13.0099 11.5234 11.5117 12.7772 8.9169L10.9375 6.88032ZM26.3061 19.1218C22.9836 22.9051 18.05 27.3455 13.2821 28.8864V29.5909C18.6667 28.1818 23.6923 24.3068 28 20.7841L26.3061 19.1218Z" fill="#FF0000"/>
</svg>
